<?xml version="1.0" encoding="UTF-8"?>
<!DOCTYPE svg PUBLIC "-//W3C//DTD SVG 1.1//EN" "http://www.w3.org/Graphics/SVG/1.1/DTD/svg11.dtd">
<!-- Creator: CorelDRAW 2018 -->
<svg xmlns="http://www.w3.org/2000/svg" xml:space="preserve" width="150px" height="71px" version="1.1" style="shape-rendering:geometricPrecision; text-rendering:geometricPrecision; image-rendering:optimizeQuality; fill-rule:evenodd; clip-rule:evenodd"
viewBox="0 0 44.85 21.05"
 xmlns:xlink="http://www.w3.org/1999/xlink">
 <defs>
  <style type="text/css">
   <![CDATA[
    .fil0 {fill:#999999;fill-rule:nonzero}
    .fil1 {fill:url(#id0)}
   ]]>
  </style>
  <linearGradient id="id0" gradientUnits="userSpaceOnUse" x1="2.72" y1="21.05" x2="10.54" y2="3.31">
   <stop offset="0" style="stop-opacity:1; stop-color:#0AB089"/>
   <stop offset="1" style="stop-opacity:1; stop-color:#8DC9A0"/>
  </linearGradient>
 </defs>
 <g id="Layer_x0020_1">
  <metadata id="CorelCorpID_0Corel-Layer"/>
  <polygon class="fil0" points="23.6,21.05 14.84,21.05 14.84,4.46 23.66,4.46 23.66,6.96 17.52,6.96 17.52,11.37 23.21,11.37 23.21,13.87 17.52,13.87 17.52,18.54 24.02,18.54 24.02,21.05 "/>
  <path class="fil0" d="M41.67 21.05l-2.25 0 -0.01 0 0 -10.99c0,-0.12 0,-0.24 0,-0.37l-5.05 11.36 -1.44 0 -5.12 -11.45 0 0.48 0 10.97 -2.61 0 0 -16.59 3.13 0 4.94 11.23c0.15,0.34 0.27,0.64 0.39,0.92l0.05 -0.14c0.13,-0.33 0.24,-0.61 0.34,-0.82l5.04 -11.19 3.01 0 0 14.08 2.76 0 0 2.51 -0.42 0 -2.34 0 -0.42 0z"/>
  <path class="fil1" d="M2.04 18.54c-0.65,-0.72 -1.14,-1.54 -1.47,-2.47 -0.37,-1.01 -0.55,-2.14 -0.55,-3.38 0,-1.27 0.2,-2.43 0.61,-3.48 0.4,-1.05 1.01,-1.99 1.82,-2.81 0.81,-0.83 1.73,-1.45 2.76,-1.86 0.15,-0.06 0.3,-0.11 0.45,-0.16 -0.07,0.21 -0.11,0.45 -0.11,0.69 0,0.61 0.25,1.16 0.64,1.55l0.01 0.01c0.04,0.05 0.1,0.09 0.15,0.14 -0.07,0.02 -0.13,0.05 -0.2,0.08 -0.66,0.28 -1.26,0.7 -1.78,1.26l0 0.01c-0.53,0.56 -0.92,1.21 -1.18,1.94 -0.27,0.75 -0.4,1.58 -0.4,2.5 0,0.95 0.12,1.8 0.37,2.53 0.24,0.73 0.61,1.35 1.09,1.88 0.48,0.52 1.05,0.92 1.7,1.18 0.65,0.26 1.4,0.39 2.25,0.39 0.58,0 1.13,-0.05 1.63,-0.17 0.41,-0.09 0.79,-0.22 1.14,-0.39l0 -2.56 -3.44 0 0 -2.51 6.13 0 0 5.99 0.01 0 0 2.15 -5.7 0 -2.54 0 -5.43 0 0 0 0 -2.51 2.04 0zm5.19 -15.61l-0.31 -1.04 0.29 -0.09 -0.37 -1.24 1.9 -0.56 0.36 1.24 0.29 -0.09 2.05 6.89 -0.29 0.08 0.24 0.82 -0.29 0.08 0.18 0.6 -1.32 0.39 -0.17 -0.6 -0.29 0.09 -0.25 -0.81 -0.29 0.08 -0.48 -1.62c0.31,-0.11 0.59,-0.29 0.82,-0.52l0.01 -0.01c0.39,-0.39 0.64,-0.94 0.64,-1.55 0,-0.61 -0.25,-1.16 -0.64,-1.55l-0.01 -0.01c-0.39,-0.39 -0.94,-0.64 -1.55,-0.64 -0.18,0 -0.36,0.02 -0.52,0.06zm1.48 1.17c-0.24,-0.24 -0.58,-0.39 -0.96,-0.39 -0.38,0 -0.72,0.15 -0.97,0.39 -0.24,0.25 -0.39,0.59 -0.39,0.97 0,0.38 0.15,0.72 0.39,0.97 0.25,0.24 0.59,0.39 0.97,0.39 0.38,0 0.72,-0.15 0.96,-0.39 0.25,-0.25 0.4,-0.59 0.4,-0.97 0,-0.38 -0.15,-0.72 -0.4,-0.97z"/>
 </g>
</svg>
